<mxfile host="app.diagrams.net" modified="2024-05-15T01:06:45.488Z" agent="Mozilla/5.0 (Windows NT 10.0; Win64; x64) AppleWebKit/537.36 (KHTML, like Gecko) Chrome/124.0.0.0 Safari/537.36" etag="mYxdUL2NWdzlN0qnR-li" version="24.4.0" type="github">
  <diagram name="Página-1" id="A4hoCyjJwmYUPSM_4MsI">
    <mxGraphModel dx="-1588" dy="777" grid="1" gridSize="10" guides="1" tooltips="1" connect="1" arrows="1" fold="1" page="1" pageScale="1" pageWidth="827" pageHeight="1169" math="0" shadow="0">
      <root>
        <mxCell id="0" />
        <mxCell id="1" parent="0" />
        <mxCell id="VB0B3s56KQdeKdGJ07VU-1" value="" style="rounded=0;html=1;jettySize=auto;orthogonalLoop=1;fontSize=11;endArrow=block;endFill=0;endSize=8;strokeWidth=1;shadow=0;labelBackgroundColor=none;edgeStyle=orthogonalEdgeStyle;" edge="1" parent="1" source="VB0B3s56KQdeKdGJ07VU-2" target="VB0B3s56KQdeKdGJ07VU-5">
          <mxGeometry relative="1" as="geometry" />
        </mxCell>
        <mxCell id="VB0B3s56KQdeKdGJ07VU-2" value="Reservar Eventos Privados&amp;nbsp;" style="rounded=1;whiteSpace=wrap;html=1;fontSize=12;glass=0;strokeWidth=1;shadow=0;" vertex="1" parent="1">
          <mxGeometry x="3358.75" y="40" width="120" height="40" as="geometry" />
        </mxCell>
        <mxCell id="VB0B3s56KQdeKdGJ07VU-3" value="" style="edgeStyle=orthogonalEdgeStyle;rounded=0;html=1;jettySize=auto;orthogonalLoop=1;fontSize=11;endArrow=block;endFill=0;endSize=8;strokeWidth=1;shadow=0;labelBackgroundColor=none;entryX=0;entryY=0.5;entryDx=0;entryDy=0;" edge="1" parent="1" source="VB0B3s56KQdeKdGJ07VU-5" target="VB0B3s56KQdeKdGJ07VU-9">
          <mxGeometry y="10" relative="1" as="geometry">
            <mxPoint as="offset" />
            <mxPoint x="3799.75" y="207.5" as="targetPoint" />
          </mxGeometry>
        </mxCell>
        <mxCell id="VB0B3s56KQdeKdGJ07VU-4" style="edgeStyle=orthogonalEdgeStyle;rounded=0;orthogonalLoop=1;jettySize=auto;html=1;entryX=0.5;entryY=0;entryDx=0;entryDy=0;" edge="1" parent="1">
          <mxGeometry relative="1" as="geometry">
            <mxPoint x="3414.836956521739" y="302.4118187385177" as="sourcePoint" />
            <mxPoint x="3417.75" y="392.5" as="targetPoint" />
            <Array as="points">
              <mxPoint x="3417.75" y="302.5" />
            </Array>
          </mxGeometry>
        </mxCell>
        <mxCell id="VB0B3s56KQdeKdGJ07VU-5" value="Verifica se Cliente ja tem o Eventos Reservado" style="rhombus;whiteSpace=wrap;html=1;shadow=0;fontFamily=Helvetica;fontSize=12;align=center;strokeWidth=1;spacing=6;spacingTop=-4;" vertex="1" parent="1">
          <mxGeometry x="3330" y="122.5" width="177.5" height="180" as="geometry" />
        </mxCell>
        <mxCell id="VB0B3s56KQdeKdGJ07VU-6" style="edgeStyle=orthogonalEdgeStyle;rounded=0;orthogonalLoop=1;jettySize=auto;html=1;entryX=0;entryY=0.5;entryDx=0;entryDy=0;" edge="1" parent="1" source="VB0B3s56KQdeKdGJ07VU-7" target="VB0B3s56KQdeKdGJ07VU-10">
          <mxGeometry relative="1" as="geometry" />
        </mxCell>
        <mxCell id="VB0B3s56KQdeKdGJ07VU-7" value="Salva no banco na tabela cliente o evento junto com as informações do evento&amp;nbsp;" style="rounded=1;whiteSpace=wrap;html=1;fontSize=12;glass=0;strokeWidth=1;shadow=0;" vertex="1" parent="1">
          <mxGeometry x="3358.75" y="672.5" width="120" height="70" as="geometry" />
        </mxCell>
        <mxCell id="VB0B3s56KQdeKdGJ07VU-8" value="Sim" style="text;html=1;align=center;verticalAlign=middle;resizable=0;points=[];autosize=1;strokeColor=none;fillColor=none;" vertex="1" parent="1">
          <mxGeometry x="3529.75" y="177.5" width="40" height="30" as="geometry" />
        </mxCell>
        <mxCell id="VB0B3s56KQdeKdGJ07VU-9" value="Retorna mensagem de evento já reservado pelo cliente" style="rounded=1;whiteSpace=wrap;html=1;fontSize=12;glass=0;strokeWidth=1;shadow=0;" vertex="1" parent="1">
          <mxGeometry x="3599.75" y="182.5" width="120" height="60" as="geometry" />
        </mxCell>
        <mxCell id="VB0B3s56KQdeKdGJ07VU-10" value="Retorna mensagem de evento agendado junto com a data" style="rounded=1;whiteSpace=wrap;html=1;fontSize=12;glass=0;strokeWidth=1;shadow=0;" vertex="1" parent="1">
          <mxGeometry x="3599.75" y="682.5" width="120" height="50" as="geometry" />
        </mxCell>
        <mxCell id="VB0B3s56KQdeKdGJ07VU-11" value="Verifica se a data esta disponivel" style="rhombus;whiteSpace=wrap;html=1;shadow=0;fontFamily=Helvetica;fontSize=12;align=center;strokeWidth=1;spacing=6;spacingTop=-4;" vertex="1" parent="1">
          <mxGeometry x="3330" y="392.5" width="177.5" height="180" as="geometry" />
        </mxCell>
        <mxCell id="VB0B3s56KQdeKdGJ07VU-12" style="edgeStyle=orthogonalEdgeStyle;rounded=0;orthogonalLoop=1;jettySize=auto;html=1;entryX=0.517;entryY=-0.066;entryDx=0;entryDy=0;entryPerimeter=0;" edge="1" parent="1" target="VB0B3s56KQdeKdGJ07VU-7">
          <mxGeometry relative="1" as="geometry">
            <mxPoint x="3417.296956521739" y="572.5018187385177" as="sourcePoint" />
            <mxPoint x="3420.21" y="662.59" as="targetPoint" />
            <Array as="points">
              <mxPoint x="3420.75" y="572.5" />
            </Array>
          </mxGeometry>
        </mxCell>
        <mxCell id="VB0B3s56KQdeKdGJ07VU-13" style="edgeStyle=orthogonalEdgeStyle;rounded=0;orthogonalLoop=1;jettySize=auto;html=1;entryX=0;entryY=0.5;entryDx=0;entryDy=0;" edge="1" parent="1" target="VB0B3s56KQdeKdGJ07VU-14">
          <mxGeometry relative="1" as="geometry">
            <mxPoint x="3507.5" y="482.5" as="sourcePoint" />
          </mxGeometry>
        </mxCell>
        <mxCell id="VB0B3s56KQdeKdGJ07VU-14" value="Retorna mensagem de data não disponivel" style="rounded=1;whiteSpace=wrap;html=1;fontSize=12;glass=0;strokeWidth=1;shadow=0;" vertex="1" parent="1">
          <mxGeometry x="3628.5" y="457.5" width="120" height="50" as="geometry" />
        </mxCell>
      </root>
    </mxGraphModel>
  </diagram>
</mxfile>
